# xmcd
# 
# Track frame offsets:
#     150
#     23357
#     57985
#     82737
#     115972
#     137527
#     160160
#     190012
#     215330
#     234195
# 
# Disc length: 3597
# 
# Revision: 4
# Processed by: cddbd v1.5.2PL0 Copyright (c) Steve Scherf et al.
# Submitted via: BonkEnc v1.0.6
# 
DISCID=6e0e0b0a
DTITLE=Stanley Clarke - Vertù
DYEAR=1999
DGENRE=Fusion
TTITLE0=V-Wave
TTITLE1=On Top Of The Rain
TTITLE2=Anoché
TTITLE3=The Call
TTITLE4=Topasio Es Puro Corazon, Part One
TTITLE5=Topasio, Part Two
TTITLE6=Danse Of The Harlequin
TTITLE7=Start It Again
TTITLE8=Marakesh
TTITLE9=Toys
EXTD=
EXTT0=
EXTT1=
EXTT2=
EXTT3=
EXTT4=
EXTT5=
EXTT6=
EXTT7=
EXTT8=
EXTT9=
PLAYORDER=
